<?xml version="1.0" encoding="UTF-8"?>
<svg version="1.1" xmlns="http://www.w3.org/2000/svg" width="400" height="300">
<path d="M0 0 C132 0 264 0 400 0 C400 99 400 198 400 300 C268 300 136 300 0 300 C0 201 0 102 0 0 Z " fill="#FCFCFC" transform="translate(0,0)"/>
<path d="M0 0 C1.42165066 -0.01152777 2.84325777 -0.03199271 4.26464844 -0.06152344 C19.02454238 -0.36759631 19.02454238 -0.36759631 24.76269531 4.29516602 C26.68847656 6.18969727 26.68847656 6.18969727 28.07519531 8.10766602 C28.54570312 8.73286133 29.01621094 9.35805664 29.50097656 10.00219727 C32.84422872 16.07801466 33.09169725 22.14910168 33.13378906 28.92797852 C33.14281754 29.84167206 33.15184601 30.7553656 33.16114807 31.69674683 C33.17560019 33.62470249 33.18452472 35.55270663 33.18823242 37.48071289 C33.20007697 40.39108762 33.24926804 43.29930345 33.29980469 46.20922852 C33.43602989 61.405789 30.71358101 72.0091475 21.82519531 84.60766602 C21.07592773 85.70691406 21.07592773 85.70691406 20.31152344 86.82836914 C18.81934681 89.00213354 17.29667164 91.15074476 15.76269531 93.29516602 C15.24304199 94.03814941 14.72338867 94.78113281 14.18798828 95.54663086 C13.67510254 96.26157715 13.1622168 96.97652344 12.63378906 97.71313477 C12.1780249 98.35404053 11.72226074 98.99494629 11.25268555 99.65527344 C9.5472147 101.53232533 8.12078969 102.38375179 5.76269531 103.29516602 C4.77269531 103.29516602 3.78269531 103.29516602 2.76269531 103.29516602 C2.04956372 106.28616455 1.39000802 109.28500133 0.76269531 112.29516602 C0.61058594 113.0105957 0.45847656 113.72602539 0.30175781 114.46313477 C-0.55795553 119.40171031 0.23105896 122.04201695 2.76269531 126.29516602 C2.76269531 126.95516602 2.76269531 127.61516602 2.76269531 128.29516602 C3.68501953 128.24295898 3.68501953 128.24295898 4.62597656 128.18969727 C5.43421875 128.16262695 6.24246094 128.13555664 7.07519531 128.10766602 C8.27595703 128.05545898 8.27595703 128.05545898 9.50097656 128.00219727 C11.76269531 128.29516602 11.76269531 128.29516602 13.55566406 129.61938477 C14.76269531 131.29516602 14.76269531 131.29516602 14.76269531 134.29516602 C12.38769531 134.48266602 12.38769531 134.48266602 9.76269531 134.29516602 C9.10269531 133.30516602 8.44269531 132.31516602 7.76269531 131.29516602 C5.79907667 130.71767799 5.79907667 130.71767799 3.63769531 130.60766602 C1.71957031 130.45297852 1.71957031 130.45297852 -0.23730469 130.29516602 C0.09269531 131.61516602 0.42269531 132.93516602 0.76269531 134.29516602 C-1.61230469 134.48266602 -1.61230469 134.48266602 -4.23730469 134.29516602 C-4.89730469 133.30516602 -5.55730469 132.31516602 -6.23730469 131.29516602 C-9.29016222 130.81512684 -9.29016222 130.81512684 -12.73730469 130.92016602 C-13.90261719 130.91243164 -15.06792969 130.90469727 -16.26855469 130.89672852 C-17.24824219 131.02821289 -18.22792969 131.15969727 -19.23730469 131.29516602 C-19.89730469 132.28516602 -20.55730469 133.27516602 -21.23730469 134.29516602 C-22.55730469 134.29516602 -23.87730469 134.29516602 -25.23730469 134.29516602 C-24.86230469 131.85766602 -24.86230469 131.85766602 -24.23730469 129.29516602 C-21.28065949 127.81684342 -18.49500732 128.23483819 -15.23730469 128.29516602 C-16.65800271 125.1414748 -18.10160046 121.99880976 -19.54980469 118.85766602 C-19.95392578 117.95983398 -20.35804688 117.06200195 -20.77441406 116.13696289 C-21.17080078 115.28295898 -21.5671875 114.42895508 -21.97558594 113.54907227 C-22.51759644 112.36293335 -22.51759644 112.36293335 -23.07055664 111.15283203 C-24.17077295 108.96446597 -24.17077295 108.96446597 -27.23730469 108.29516602 C-29.63931424 109.47727303 -31.83763018 110.70762673 -34.10839844 112.10766602 C-35.12475121 112.71747314 -35.12475121 112.71747314 -36.16163635 113.33959961 C-38.33861027 114.6485901 -40.50675215 115.9714622 -42.67480469 117.29516602 C-44.10065982 118.15679892 -45.5270866 119.01748661 -46.95410156 119.87719727 C-49.05412662 121.14293097 -51.1535147 122.40962847 -53.25033569 123.68066406 C-59.20532337 127.28993062 -65.20714589 130.81270787 -71.23730469 134.29516602 C-70.90730469 133.51141602 -70.57730469 132.72766602 -70.23730469 131.92016602 C-69.11863958 129.45184104 -69.11863958 129.45184104 -69.23730469 127.29516602 C-73.19730469 129.60516602 -77.15730469 131.91516602 -81.23730469 134.29516602 C-77.82574701 125.76627182 -73.80138146 121.83977367 -66.36230469 116.85766602 C-65.48388916 116.25639893 -64.60547363 115.65513184 -63.70043945 115.03564453 C-60.8860233 113.1122157 -58.06172811 111.20386029 -55.23730469 109.29516602 C-53.38878415 108.03341046 -51.54112081 106.77039813 -49.69433594 105.50610352 C-46.01065689 102.98612032 -42.32323955 100.47178918 -38.63183594 97.96313477 C-32.75582608 93.9697198 -26.88859622 89.96356354 -21.02954102 85.9453125 C-17.25354481 83.35572473 -13.47187495 80.77565204 -9.67480469 78.21704102 C-8.9476123 77.72429687 -8.22041992 77.23155273 -7.47119141 76.72387695 C-6.11641979 75.80605761 -4.75888982 74.89228947 -3.39794922 73.98364258 C2.82843991 69.75121781 7.42222375 65.68612883 9.76269531 58.29516602 C10.49199674 52.57064931 10.00886731 48.22453832 6.76269531 43.29516602 C5.27769531 42.30516602 5.27769531 42.30516602 3.76269531 41.29516602 C4.42269531 42.05829102 5.08269531 42.82141602 5.76269531 43.60766602 C8.7758594 48.13817344 8.52112937 53.0643167 7.76269531 58.29516602 C3.7090769 66.88883705 -5.43909714 71.89425012 -13.23730469 76.73266602 C-15.20029358 77.96584906 -17.16250825 79.20026522 -19.12402344 80.43579102 C-20.13126465 81.06936523 -21.13850586 81.70293945 -22.17626953 82.35571289 C-27.16541134 85.51680258 -32.10801933 88.74822326 -37.04980469 91.98266602 C-38.98598395 93.24831956 -40.92218148 94.51394515 -42.85839844 95.77954102 C-43.7760498 96.37959961 -44.69370117 96.9796582 -45.63916016 97.59790039 C-49.29179482 99.98402294 -52.94994299 102.36150434 -56.61230469 104.73266602 C-57.26505371 105.15539795 -57.91780273 105.57812988 -58.59033203 106.01367188 C-62.88043607 108.78634454 -67.18340443 111.53835875 -71.49121094 114.28344727 C-72.59480957 114.98735596 -73.6984082 115.69126465 -74.83544922 116.41650391 C-77.0005062 117.79661297 -79.1667747 119.174824 -81.33447266 120.55078125 C-87.75248697 124.64191919 -94.04247924 128.8731087 -100.23730469 133.29516602 C-100.89730469 132.96516602 -101.55730469 132.63516602 -102.23730469 132.29516602 C-101.53347656 131.48176758 -100.82964844 130.66836914 -100.10449219 129.83032227 C-92.57192359 121.09765828 -85.20110564 112.24125461 -77.8996582 103.31469727 C-77.35108154 102.64825195 -76.80250488 101.98180664 -76.23730469 101.29516602 C-75.51575195 100.3423877 -74.79419922 99.38960938 -74.05078125 98.40795898 C-70.93815061 94.68761267 -67.15327668 92.2694151 -63.09277344 89.67797852 C-61.93809319 88.92494949 -61.93809319 88.92494949 -60.76008606 88.15670776 C-58.32073726 86.56879661 -55.87302835 84.99435095 -53.42480469 83.42016602 C-51.76082127 82.3403177 -50.09740355 81.25959714 -48.43457031 80.17797852 C-44.37528913 77.54023981 -40.30846091 74.91453556 -36.23730469 72.29516602 C-36.83269043 72.54274658 -37.42807617 72.79032715 -38.04150391 73.04541016 C-40.72852874 74.15752676 -43.42027725 75.25771756 -46.11230469 76.35766602 C-47.04945313 76.74760742 -47.98660156 77.13754883 -48.95214844 77.53930664 C-49.84804687 77.9034668 -50.74394531 78.26762695 -51.66699219 78.64282227 C-52.90811768 79.15341187 -52.90811768 79.15341187 -54.17431641 79.67431641 C-56.23730469 80.29516602 -56.23730469 80.29516602 -58.23730469 79.29516602 C-57.61984375 78.6287207 -57.00238281 77.96227539 -56.36621094 77.27563477 C-51.27678798 71.73691724 -46.38853994 66.1091061 -41.65917969 60.25610352 C-19.55890493 33.23673534 -19.55890493 33.23673534 -8.40136719 32.05297852 C-4.79809546 31.18997269 -3.52627414 30.14824169 -1.23730469 27.29516602 C0.33692284 24.14671096 0.43197874 20.7029853 -0.23730469 17.29516602 C-2.41531073 13.54787869 -3.83097465 12.44043648 -7.95214844 10.96704102 C-9.35531202 10.64029494 -10.76322691 10.33340068 -12.17480469 10.04516602 C-13.22958008 9.80540039 -13.22958008 9.80540039 -14.30566406 9.56079102 C-17.9365604 8.74409456 -21.58507974 8.00988714 -25.23730469 7.29516602 C-25.23730469 6.63516602 -25.23730469 5.97516602 -25.23730469 5.29516602 C-16.87277921 0.21084661 -9.66693313 0.05454626 0 0 Z " fill="#040404" transform="translate(235.2373046875,82.704833984375)"/>
<path d="M0 0 C3.8485897 1.72522987 6.11639573 3.41881341 8.1875 7.125 C10.10700881 13.91710808 9.45962671 19.79653142 6 26 C-1.43285794 35.05879561 -13.31514949 41.31927598 -22.9375 47.8125 C-25.13497248 49.29691704 -27.33133767 50.78294274 -29.52734375 52.26953125 C-30.48374756 52.91510986 -31.44015137 53.56068848 -32.42553711 54.22583008 C-34.05534032 55.34899556 -35.65765071 56.51411325 -37.21704102 57.7331543 C-39 59 -39 59 -41 59 C-41.51171875 56.34375 -41.51171875 56.34375 -41 53 C-38.5888113 50.66959224 -35.71641333 49.14761443 -32.8125 47.5 C-31.07526455 46.4583237 -29.33964778 45.41394421 -27.60546875 44.3671875 C-26.69200684 43.82288086 -25.77854492 43.27857422 -24.83740234 42.71777344 C-20.02315631 39.80321182 -15.32112408 36.72514497 -10.625 33.625 C-9.29819214 32.76938477 -9.29819214 32.76938477 -7.94458008 31.89648438 C-2.5477333 28.33503411 2.04104187 24.91791625 5 19 C5.77926572 11.36367633 5.77926572 11.36367633 3.0625 4.4375 C2.381875 3.633125 1.70125 2.82875 1 2 C0.505 1.01 0.505 1.01 0 0 Z " fill="#ECECEC" transform="translate(237,122)"/>
<path d="M0 0 C2.30592263 2.12774712 3.79825935 4.17209077 5.26171875 6.94140625 C5.85629883 8.06385742 5.85629883 8.06385742 6.46289062 9.20898438 C6.86701172 9.98564453 7.27113281 10.76230469 7.6875 11.5625 C8.10322266 12.34302734 8.51894531 13.12355469 8.94726562 13.92773438 C12 19.73745382 12 19.73745382 12 22 C8.04 22 4.08 22 0 22 C-3.29058654 14.76070961 -3.55132661 9.47147081 -0.9375 1.9375 C-0.4734375 0.9784375 -0.4734375 0.9784375 0 0 Z " fill="#F5F5F5" transform="translate(223,189)"/>
<path d="M0 0 C3.8485897 1.72522987 6.11639573 3.41881341 8.1875 7.125 C10.13189752 14.00517583 9.36712667 19.76458024 6 26 C4.3125 27.9375 4.3125 27.9375 3 29 C2.01 28.01 1.02 27.02 0 26 C0.639375 25.21625 1.27875 24.4325 1.9375 23.625 C5.80437868 18.70351805 5.65544082 14.11457289 5 8 C3.93641526 5.53925168 2.75800606 4.07764353 1 2 C0.67 1.34 0.34 0.68 0 0 Z " fill="#E4E4E4" transform="translate(237,122)"/>
<path d="M0 0 C1.32 0 2.64 0 4 0 C3.65514457 2.8842454 3.21744593 3.8207818 0.93359375 5.703125 C0.10988281 6.21359375 -0.71382812 6.7240625 -1.5625 7.25 C-2.38878906 7.77078125 -3.21507812 8.2915625 -4.06640625 8.828125 C-5.02353516 9.40820312 -5.02353516 9.40820312 -6 10 C-6.33 8.68 -6.66 7.36 -7 6 C-3.25 3 -3.25 3 -1 3 C-0.67 2.01 -0.34 1.02 0 0 Z " fill="#F7F7F7" transform="translate(209,167)"/>
<path d="M0 0 C0.66 0.99 1.32 1.98 2 3 C0.5361389 7.39158329 -1.97831338 7.87947433 -6 10 C-6 9.01 -6 8.02 -6 7 C-6.99 6.67 -7.98 6.34 -9 6 C-6.03 4.02 -3.06 2.04 0 0 Z " fill="#E9E9E9" transform="translate(219,160)"/>
<path d="M0 0 C0.66 0.33 1.32 0.66 2 1 C0.06829319 2.34171264 -1.87056876 3.67312883 -3.8125 5 C-4.89144531 5.7425 -5.97039062 6.485 -7.08203125 7.25 C-10 9 -10 9 -13 9 C-13.33 8.01 -13.66 7.02 -14 6 C-11.71220962 4.96959833 -9.42048864 3.95047982 -7.125 2.9375 C-6.47402344 2.64294922 -5.82304687 2.34839844 -5.15234375 2.04492188 C-3.45989459 1.30338487 -1.73131425 0.64560999 0 0 Z " fill="#DADADA" transform="translate(198,154)"/>
<path d="M0 0 C2.625 0.25 2.625 0.25 4.4375 1.5625 C5.625 3.25 5.625 3.25 5.625 6.25 C3.375 6.5625 3.375 6.5625 0.625 6.25 C-1.6875 3.75 -1.6875 3.75 -3.375 1.25 C-2.375 0.25 -2.375 0.25 0 0 Z " fill="#0F0F0F" transform="translate(244.375,210.75)"/>
<path d="M0 0 C0 2 0 2 -1.75 4.125 C-4 6 -4 6 -8 6 C-7.625 3.5625 -7.625 3.5625 -7 1 C-4.53721199 -0.231394 -2.7204945 -0.07159196 0 0 Z " fill="#0C0C0C" transform="translate(218,211)"/>
<path d="M0 0 C1.65 0.33 3.3 0.66 5 1 C5 2.32 5 3.64 5 5 C3.125 5.625 3.125 5.625 1 6 C0.34 5.34 -0.32 4.68 -1 4 C-0.625 1.875 -0.625 1.875 0 0 Z " fill="#E1E1E1" transform="translate(242,86)"/>
<path d="M0 0 C1.73662334 3.22515763 2.8905928 6.51329166 4 10 C3.34 10 2.68 10 2 10 C1.67 10.66 1.34 11.32 1 12 C0.44191911 10.56879256 -0.09596462 9.12969645 -0.625 7.6875 C-0.92664063 6.88699219 -1.22828125 6.08648437 -1.5390625 5.26171875 C-1.69117188 4.51535156 -1.84328125 3.76898438 -2 3 C-1.34 2.01 -0.68 1.02 0 0 Z " fill="#202020" transform="translate(219,199)"/>
<path d="M0 0 C0 3.13751221 -0.35179805 4.39757586 -2 7 C-2.99 7.33 -3.98 7.66 -5 8 C-5.66 7.34 -6.32 6.68 -7 6 C-2.25 1.125 -2.25 1.125 0 0 Z " fill="#F6F6F6" transform="translate(226,156)"/>
<path d="M0 0 C0 0.99 0 1.98 0 3 C-3 5.1875 -3 5.1875 -6 7 C-6.66 6.67 -7.32 6.34 -8 6 C-3.375 0 -3.375 0 0 0 Z " fill="#1D1D1D" transform="translate(141,209)"/>
<path d="M0 0 C0.66 0.33 1.32 0.66 2 1 C1.67 1.99 1.34 2.98 1 4 C-2 5 -2 5 -5 5 C-5 4.01 -5 3.02 -5 2 C-2.625 0.9375 -2.625 0.9375 0 0 Z " fill="#E7E7E7" transform="translate(189,158)"/>
</svg>
